<svg width="32" height="32" viewBox="0 0 32 32" fill="none" xmlns="http://www.w3.org/2000/svg">
<rect width="32" height="32" rx="4" fill="black"/>
<path fill-rule="evenodd" clip-rule="evenodd" d="M5.65081 10.966C7.62684 8.99 10.5987 8.58543 13.0828 9.72209C14.791 8.99652 16.7694 9.03684 18.5086 9.83267C20.9484 8.79637 23.9392 9.32245 25.9974 11.3807C28.6729 14.0561 28.7595 18.3072 26.1909 20.8758C24.2149 22.8518 21.2431 23.2564 18.759 22.1198C18.9714 22.0295 19.1797 21.9274 19.3828 21.8134C17.5465 22.8436 15.2887 22.904 13.3332 22.0092C10.8934 23.0455 7.90255 22.5194 5.8443 20.4611C3.16887 17.7857 3.08224 13.5346 5.65081 10.966ZM13.8171 12.4883C13.6005 12.2718 13.3695 12.0789 13.1274 11.9099C12.892 12.0692 12.6686 12.2528 12.4607 12.4607C10.626 14.2954 10.6879 17.3319 12.5989 19.2429C12.8155 19.4595 13.0465 19.6523 13.2886 19.8213C13.524 19.6621 13.7474 19.4785 13.9553 19.2706C15.79 17.4359 15.7281 14.3994 13.8171 12.4883ZM11.0768 11.0764C9.6303 10.842 8.12173 11.2633 7.03489 12.3501C5.2002 14.1848 5.26208 17.2213 7.1731 19.1323C8.30516 20.2644 9.83217 20.7476 11.2703 20.572C8.5949 17.8965 8.50826 13.6449 11.0768 11.0764ZM20.7649 20.7655C22.2114 20.9999 23.72 20.5786 24.8069 19.4917C26.6416 17.657 26.5797 14.6205 24.6686 12.7095C23.5366 11.5774 22.0096 11.0943 20.5715 11.2699C20.5715 11.27 20.5714 11.2698 20.5715 11.2699C23.2469 13.9453 23.3335 18.1969 20.7649 20.7655ZM15.1457 11.1593C16.5838 10.9837 18.1108 11.4669 19.2429 12.5989C21.1539 14.5099 21.2158 17.5464 19.3811 19.3811C18.2943 20.468 16.7857 20.8893 15.3392 20.6549C17.9077 18.0863 17.8211 13.8347 15.1457 11.1593Z" fill="url(#paint0_linear_129_10)"/>
<defs>
<linearGradient id="paint0_linear_129_10" x1="0.999999" y1="15.6168" x2="30.817" y2="15.0092" gradientUnits="userSpaceOnUse">
<stop stop-color="#73D2F0"/>
<stop offset="1" stop-color="#D04AFF"/>
<stop offset="1" stop-color="#D04AFF" stop-opacity="0"/>
</linearGradient>
</defs>
</svg>
