<svg width="26" height="14" viewBox="0 0 26 14" fill="none" xmlns="http://www.w3.org/2000/svg">
<path fill-rule="evenodd" clip-rule="evenodd" d="M2.39352 2.05024C4.49657 -0.052811 7.60486 -0.537956 10.1717 0.594805C11.9688 -0.198288 14.0314 -0.198286 15.8286 0.594811C18.3954 -0.537933 21.5037 -0.0527834 23.6067 2.05026C26.3404 4.78393 26.3404 9.21608 23.6067 11.9498C21.5037 14.0528 18.3954 14.5379 15.8285 13.4052C16.0521 13.3065 16.2715 13.1956 16.4858 13.0724C14.5486 14.186 12.1924 14.2969 10.1717 13.4052C7.60486 14.5379 4.49657 14.0528 2.39352 11.9497C-0.34015 9.21606 -0.340149 4.78391 2.39352 2.05024ZM10.8788 3.46445C10.6575 3.24316 10.4206 3.04694 10.1717 2.8758C9.92276 3.04694 9.68588 3.24316 9.46459 3.46445C7.51197 5.41707 7.51197 8.5829 9.46459 10.5355C9.68588 10.7568 9.92276 10.953 10.1717 11.1242C10.4206 10.953 10.6575 10.7568 10.8788 10.5355C12.8314 8.5829 12.8314 5.41707 10.8788 3.46445ZM8.05063 2.04998C6.54686 1.83626 4.96443 2.30775 3.80773 3.46445C1.85511 5.41707 1.85511 8.5829 3.80773 10.5355C4.96443 11.6922 6.54686 12.1637 8.05063 11.95C5.31696 9.21632 5.31696 4.78365 8.05063 2.04998ZM17.9496 11.95C19.4534 12.1637 21.0358 11.6922 22.1925 10.5355C24.1451 8.58292 24.1451 5.41709 22.1925 3.46447C21.0358 2.30778 19.4534 1.8363 17.9496 2.05C17.9497 2.05008 17.9496 2.04992 17.9496 2.05C20.6833 4.78367 20.6833 9.21634 17.9496 11.95ZM12.2928 2.04998C13.7965 1.83627 15.379 2.30775 16.5357 3.46445C18.4883 5.41707 18.4883 8.5829 16.5357 10.5355C15.379 11.6922 13.7965 12.1637 12.2928 11.95C15.0264 9.21632 15.0264 4.78365 12.2928 2.04998Z" fill="url(#paint0_linear_113_51)"/>
<defs>
<linearGradient id="paint0_linear_113_51" x1="-2.55623" y1="6.99999" x2="28.5565" y2="6.99999" gradientUnits="userSpaceOnUse">
<stop stop-color="#73D2F0"/>
<stop offset="1" stop-color="#D04AFF"/>
<stop offset="1" stop-color="#D04AFF" stop-opacity="0"/>
</linearGradient>
</defs>
</svg>
